ffmpeg started on 2025-05-24 at 14:53:31
Report written to "D:\Convert\FFMetrics\reports\psnr_report-6.txt"
Log level: 32
Command line:
ffmpeg -hide_banner -nostdin -i "G:\\\xc0\xed\xe8\xec\xe5\\\xce\xed\xe3\xee\xe8\xed\xe3\xe8\\!_33_\xc7\xe8\xec\xe0_2024\\DreamCast\\\xc2\xf0\xe5\xec\xff \xef\xfb\xf2\xee\xea, \xef\xf0\xe8\xed\xf6\xe5\xf1\xf1\xe0!\\[DC] Hime-sama Goumon no Jikan Desu - 12_Telegram_HEVC.mkv" -i "G:\\\xc0\xed\xe8\xec\xe5\\\xce\xed\xe3\xee\xe8\xed\xe3\xe8\\!_33_\xc7\xe8\xec\xe0_2024\\DreamCast\\\xc2\xf0\xe5\xec\xff \xef\xfb\xf2\xee\xea, \xef\xf0\xe8\xed\xf6\xe5\xf1\xf1\xe0!\\[DC] Hime-sama Goumon no Jikan Desu - 12_Telegram.mp4" -lavfi "[0:v]settb=AVTB,setpts=PTS-STARTPTS,format=pix_fmts=yuv420p10,fps=24000/1001,scale=1920:1080:flags=bicubic[main];[1:v]settb=AVTB,setpts=PTS-STARTPTS,format=pix_fmts=yuv420p,fps=24000/1001,scale=1920:1080:flags=bicubic[ref];[main][ref]psnr=eof_action=endall:stats_file='D\\:/Convert/FFMetrics/logs/psnr_logfile-6.txt'" -f null -
Input #0, matroska,webm, from 'G:\Аниме\Онгоинги\!_33_Зима_2024\DreamCast\Время пыток, принцесса!\[DC] Hime-sama Goumon no Jikan Desu - 12_Telegram_HEVC.mkv':
  Metadata:
    COMPATIBLE_BRANDS: isomiso2avc1mp41
    MAJOR_BRAND     : isom
    MINOR_VERSION   : 512
    ENCODER         : Lavf61.7.100
  Duration: 00:23:46.65, start: -0.021000, bitrate: 1074 kb/s
  Stream #0:0: Video: hevc (Main 10), yuv420p10le(tv, bt709, progressive), 1920x1080 [SAR 1:1 DAR 16:9], 23.98 fps, 23.98 tbr, 1k tbn (default)
      Metadata:
        HANDLER_NAME    : VideoHandler
        VENDOR_ID       : [0][0][0][0]
        ENCODER         : Lavc61.19.100 libx265
        BPS             : 876538
        DURATION        : 00:23:46.549708333
        NUMBER_OF_FRAMES: 34203
        NUMBER_OF_BYTES : 156303128
        _STATISTICS_WRITING_APP: mkvpropedit v66.0.0 ('Josie') 64-bit
        _STATISTICS_WRITING_DATE_UTC: 2025-05-21 16:26:42
        _STATISTICS_TAGS: BPS DURATION NUMBER_OF_FRAMES NUMBER_OF_BYTES
  Stream #0:1: Audio: aac (LC), 48000 Hz, stereo, fltp (default)
      Metadata:
        HANDLER_NAME    : SoundHandler
        VENDOR_ID       : [0][0][0][0]
        ENCODER         : Lavc61.19.100 aac
        BPS             : 193494
        DURATION        : 00:23:46.645000000
        NUMBER_OF_FRAMES: 66875
        NUMBER_OF_BYTES : 34505977
        _STATISTICS_WRITING_APP: mkvpropedit v66.0.0 ('Josie') 64-bit
        _STATISTICS_WRITING_DATE_UTC: 2025-05-21 16:26:42
        _STATISTICS_TAGS: BPS DURATION NUMBER_OF_FRAMES NUMBER_OF_BYTES
Input #1, mov,mp4,m4a,3gp,3g2,mj2, from 'G:\Аниме\Онгоинги\!_33_Зима_2024\DreamCast\Время пыток, принцесса!\[DC] Hime-sama Goumon no Jikan Desu - 12_Telegram.mp4':
  Metadata:
    major_brand     : isom
    minor_version   : 512
    compatible_brands: isomiso2avc1mp41
    encoder         : Lavf60.16.100
  Duration: 00:23:46.62, start: 0.000000, bitrate: 3638 kb/s
  Stream #1:0[0x1](und): Video: h264 (High) (avc1 / 0x31637661), yuv420p(tv, bt709, progressive), 1920x1080 [SAR 1:1 DAR 16:9], 3490 kb/s, 23.98 fps, 23.98 tbr, 24k tbn (default)
      Metadata:
        handler_name    : VideoHandler
        vendor_id       : [0][0][0][0]
        encoder         : Lavc60.31.102 h264_qsv
  Stream #1:1[0x2](und): Audio: aac (HE-AACv2) (mp4a / 0x6134706D), 48000 Hz, stereo, fltp, 144 kb/s (default)
      Metadata:
        handler_name    : SoundHandler
        vendor_id       : [0][0][0][0]
Stream mapping:
  Stream #0:0 (hevc) -> settb:default
  Stream #1:0 (h264) -> settb:default
  psnr:default -> Stream #0:0 (wrapped_avframe)
  Stream #0:1 -> #0:1 (aac (native) -> pcm_s16le (native))
Output #0, null, to 'pipe:':
  Metadata:
    COMPATIBLE_BRANDS: isomiso2avc1mp41
    MAJOR_BRAND     : isom
    MINOR_VERSION   : 512
    encoder         : Lavf61.7.100
  Stream #0:0: Video: wrapped_avframe, yuv420p10le(tv, bt709, progressive), 1920x1080 [SAR 1:1 DAR 16:9], q=2-31, 200 kb/s, 23.98 fps, 23.98 tbn
      Metadata:
        encoder         : Lavc61.19.100 wrapped_avframe
  Stream #0:1: Audio: pcm_s16le, 48000 Hz, stereo, s16, 1536 kb/s (default)
      Metadata:
        HANDLER_NAME    : SoundHandler
        VENDOR_ID       : [0][0][0][0]
        _STATISTICS_TAGS: BPS DURATION NUMBER_OF_FRAMES NUMBER_OF_BYTES
        BPS             : 193494
        DURATION        : 00:23:46.645000000
        NUMBER_OF_FRAMES: 66875
        NUMBER_OF_BYTES : 34505977
        _STATISTICS_WRITING_APP: mkvpropedit v66.0.0 ('Josie') 64-bit
        _STATISTICS_WRITING_DATE_UTC: 2025-05-21 16:26:42
        encoder         : Lavc61.19.100 pcm_s16le
frame=  177 fps=0.0 q=-0.0 size=N/A time=00:00:07.38 bitrate=N/A speed=14.5x    frame=  458 fps=442 q=-0.0 size=N/A time=00:00:19.10 bitrate=N/A speed=18.5x    frame=  714 fps=462 q=-0.0 size=N/A time=00:00:29.77 bitrate=N/A speed=19.3x    frame=  983 fps=478 q=-0.0 size=N/A time=00:00:40.99 bitrate=N/A speed=19.9x    frame= 1280 fps=496 q=-0.0 size=N/A time=00:00:53.38 bitrate=N/A speed=20.7x    frame= 1570 fps=508 q=-0.0 size=N/A time=00:01:05.48 bitrate=N/A speed=21.2x    frame= 1852 fps=514 q=-0.0 size=N/A time=00:01:17.24 bitrate=N/A speed=21.4x    frame= 2133 fps=517 q=-0.0 size=N/A time=00:01:28.96 bitrate=N/A speed=21.6x    frame= 2404 fps=518 q=-0.0 size=N/A time=00:01:40.26 bitrate=N/A speed=21.6x    frame= 2688 fps=522 q=-0.0 size=N/A time=00:01:52.11 bitrate=N/A speed=21.8x    frame= 2962 fps=522 q=-0.0 size=N/A time=00:02:03.54 bitrate=N/A speed=21.8x    frame= 3149 fps=509 q=-0.0 size=N/A time=00:02:11.33 bitrate=N/A speed=21.2x    frame= 3426 fps=511 q=-0.0 size=N/A time=00:02:22.89 bitrate=N/A speed=21.3x    frame= 3684 fps=510 q=-0.0 size=N/A time=00:02:33.65 bitrate=N/A speed=21.3x    frame= 3944 fps=510 q=-0.0 size=N/A time=00:02:44.49 bitrate=N/A speed=21.3x    frame= 4227 fps=511 q=-0.0 size=N/A time=00:02:56.30 bitrate=N/A speed=21.3x    frame= 4510 fps=514 q=-0.0 size=N/A time=00:03:08.10 bitrate=N/A speed=21.4x    frame= 4748 fps=511 q=-0.0 size=N/A time=00:03:18.03 bitrate=N/A speed=21.3x    frame= 4950 fps=504 q=-0.0 size=N/A time=00:03:26.45 bitrate=N/A speed=  21x    frame= 5198 fps=503 q=-0.0 size=N/A time=00:03:36.79 bitrate=N/A speed=  21x    frame= 5456 fps=504 q=-0.0 size=N/A time=00:03:47.56 bitrate=N/A speed=  21x    frame= 5732 fps=505 q=-0.0 size=N/A time=00:03:59.07 bitrate=N/A speed=  21x    frame= 5998 fps=505 q=-0.0 size=N/A time=00:04:10.16 bitrate=N/A speed=21.1x    frame= 6277 fps=507 q=-0.0 size=N/A time=00:04:21.80 bitrate=N/A speed=21.1x    frame= 6564 fps=509 q=-0.0 size=N/A time=00:04:33.77 bitrate=N/A speed=21.2x    frame= 6844 fps=510 q=-0.0 size=N/A time=00:04:45.45 bitrate=N/A speed=21.3x    frame= 7134 fps=512 q=-0.0 size=N/A time=00:04:57.54 bitrate=N/A speed=21.3x    frame= 7369 fps=509 q=-0.0 size=N/A time=00:05:07.34 bitrate=N/A speed=21.2x    frame= 7628 fps=509 q=-0.0 size=N/A time=00:05:18.15 bitrate=N/A speed=21.2x    frame= 7914 fps=511 q=-0.0 size=N/A time=00:05:30.07 bitrate=N/A speed=21.3x    frame= 8195 fps=512 q=-0.0 size=N/A time=00:05:41.79 bitrate=N/A speed=21.4x    frame= 8456 fps=511 q=-0.0 size=N/A time=00:05:52.68 bitrate=N/A speed=21.3x    frame= 8706 fps=511 q=-0.0 size=N/A time=00:06:03.11 bitrate=N/A speed=21.3x    frame= 8947 fps=510 q=-0.0 size=N/A time=00:06:13.16 bitrate=N/A speed=21.3x    frame= 9203 fps=509 q=-0.0 size=N/A time=00:06:23.84 bitrate=N/A speed=21.2x    frame= 9452 fps=508 q=-0.0 size=N/A time=00:06:34.22 bitrate=N/A speed=21.2x    frame= 9734 fps=509 q=-0.0 size=N/A time=00:06:45.98 bitrate=N/A speed=21.2x    frame=10015 fps=510 q=-0.0 size=N/A time=00:06:57.70 bitrate=N/A speed=21.3x    frame=10302 fps=512 q=-0.0 size=N/A time=00:07:09.67 bitrate=N/A speed=21.3x    frame=10560 fps=511 q=-0.0 size=N/A time=00:07:20.44 bitrate=N/A speed=21.3x    frame=10820 fps=511 q=-0.0 size=N/A time=00:07:31.28 bitrate=N/A speed=21.3x    frame=11063 fps=510 q=-0.0 size=N/A time=00:07:41.41 bitrate=N/A speed=21.3x    frame=11315 fps=510 q=-0.0 size=N/A time=00:07:51.92 bitrate=N/A speed=21.3x    frame=11587 fps=510 q=-0.0 size=N/A time=00:08:03.27 bitrate=N/A speed=21.3x    frame=11854 fps=510 q=-0.0 size=N/A time=00:08:14.41 bitrate=N/A speed=21.3x    frame=12137 fps=511 q=-0.0 size=N/A time=00:08:26.21 bitrate=N/A speed=21.3x    frame=12388 fps=511 q=-0.0 size=N/A time=00:08:36.68 bitrate=N/A speed=21.3x    frame=12679 fps=512 q=-0.0 size=N/A time=00:08:48.81 bitrate=N/A speed=21.3x    frame=12955 fps=512 q=-0.0 size=N/A time=00:09:00.33 bitrate=N/A speed=21.4x    frame=13238 fps=513 q=-0.0 size=N/A time=00:09:12.13 bitrate=N/A speed=21.4x    frame=13488 fps=512 q=-0.0 size=N/A time=00:09:22.56 bitrate=N/A speed=21.4x    frame=13758 fps=513 q=-0.0 size=N/A time=00:09:33.82 bitrate=N/A speed=21.4x    frame=14022 fps=513 q=-0.0 size=N/A time=00:09:44.83 bitrate=N/A speed=21.4x    frame=14302 fps=513 q=-0.0 size=N/A time=00:09:56.51 bitrate=N/A speed=21.4x    frame=14575 fps=513 q=-0.0 size=N/A time=00:10:07.89 bitrate=N/A speed=21.4x    frame=14848 fps=514 q=-0.0 size=N/A time=00:10:19.28 bitrate=N/A speed=21.4x    frame=15124 fps=514 q=-0.0 size=N/A time=00:10:30.79 bitrate=N/A speed=21.4x    frame=15404 fps=515 q=-0.0 size=N/A time=00:10:42.47 bitrate=N/A speed=21.5x    frame=15701 fps=516 q=-0.0 size=N/A time=00:10:54.86 bitrate=N/A speed=21.5x    frame=15966 fps=516 q=-0.0 size=N/A time=00:11:05.91 bitrate=N/A speed=21.5x    frame=16160 fps=513 q=-0.0 size=N/A time=00:11:14.00 bitrate=N/A speed=21.4x    frame=16433 fps=513 q=-0.0 size=N/A time=00:11:25.39 bitrate=N/A speed=21.4x    frame=16716 fps=514 q=-0.0 size=N/A time=00:11:37.19 bitrate=N/A speed=21.4x    frame=17000 fps=515 q=-0.0 size=N/A time=00:11:49.04 bitrate=N/A speed=21.5x    frame=17247 fps=514 q=-0.0 size=N/A time=00:11:59.34 bitrate=N/A speed=21.4x    frame=17521 fps=514 q=-0.0 size=N/A time=00:12:10.77 bitrate=N/A speed=21.4x    frame=17787 fps=514 q=-0.0 size=N/A time=00:12:21.86 bitrate=N/A speed=21.5x    frame=18052 fps=514 q=-0.0 size=N/A time=00:12:32.91 bitrate=N/A speed=21.4x    frame=18338 fps=515 q=-0.0 size=N/A time=00:12:44.84 bitrate=N/A speed=21.5x    frame=18615 fps=515 q=-0.0 size=N/A time=00:12:56.40 bitrate=N/A speed=21.5x    frame=18871 fps=515 q=-0.0 size=N/A time=00:13:07.07 bitrate=N/A speed=21.5x    frame=19117 fps=514 q=-0.0 size=N/A time=00:13:17.33 bitrate=N/A speed=21.5x    frame=19393 fps=515 q=-0.0 size=N/A time=00:13:28.84 bitrate=N/A speed=21.5x    frame=19564 fps=512 q=-0.0 size=N/A time=00:13:35.98 bitrate=N/A speed=21.4x    frame=19747 fps=510 q=-0.0 size=N/A time=00:13:43.61 bitrate=N/A speed=21.3x    frame=19941 fps=508 q=-0.0 size=N/A time=00:13:51.70 bitrate=N/A speed=21.2x    frame=20176 fps=508 q=-0.0 size=N/A time=00:14:01.50 bitrate=N/A speed=21.2x    frame=20423 fps=507 q=-0.0 size=N/A time=00:14:11.80 bitrate=N/A speed=21.2x    frame=20695 fps=508 q=-0.0 size=N/A time=00:14:23.15 bitrate=N/A speed=21.2x    frame=20974 fps=508 q=-0.0 size=N/A time=00:14:34.79 bitrate=N/A speed=21.2x    frame=21253 fps=508 q=-0.0 size=N/A time=00:14:46.42 bitrate=N/A speed=21.2x    frame=21510 fps=508 q=-0.0 size=N/A time=00:14:57.14 bitrate=N/A speed=21.2x    frame=21743 fps=507 q=-0.0 size=N/A time=00:15:06.86 bitrate=N/A speed=21.2x    frame=21922 fps=506 q=-0.0 size=N/A time=00:15:14.33 bitrate=N/A speed=21.1x    frame=22090 fps=504 q=-0.0 size=N/A time=00:15:21.33 bitrate=N/A speed=  21x    frame=22280 fps=502 q=-0.0 size=N/A time=00:15:29.26 bitrate=N/A speed=20.9x    frame=22486 fps=501 q=-0.0 size=N/A time=00:15:37.85 bitrate=N/A speed=20.9x    frame=22700 fps=500 q=-0.0 size=N/A time=00:15:46.77 bitrate=N/A speed=20.8x    frame=22922 fps=499 q=-0.0 size=N/A time=00:15:56.03 bitrate=N/A speed=20.8x    frame=23111 fps=498 q=-0.0 size=N/A time=00:16:03.92 bitrate=N/A speed=20.8x    frame=23263 fps=495 q=-0.0 size=N/A time=00:16:10.26 bitrate=N/A speed=20.7x    frame=23409 fps=493 q=-0.0 size=N/A time=00:16:16.35 bitrate=N/A speed=20.6x    frame=23601 fps=492 q=-0.0 size=N/A time=00:16:24.35 bitrate=N/A speed=20.5x    frame=23823 fps=491 q=-0.0 size=N/A time=00:16:33.61 bitrate=N/A speed=20.5x    frame=24079 fps=491 q=-0.0 size=N/A time=00:16:44.29 bitrate=N/A speed=20.5x    frame=24350 fps=492 q=-0.0 size=N/A time=00:16:55.59 bitrate=N/A speed=20.5x    frame=24606 fps=491 q=-0.0 size=N/A time=00:17:06.27 bitrate=N/A speed=20.5x    frame=24864 fps=492 q=-0.0 size=N/A time=00:17:17.03 bitrate=N/A speed=20.5x    frame=25107 fps=491 q=-0.0 size=N/A time=00:17:27.17 bitrate=N/A speed=20.5x    frame=25411 fps=492 q=-0.0 size=N/A time=00:17:39.85 bitrate=N/A speed=20.5x    frame=25678 fps=493 q=-0.0 size=N/A time=00:17:50.98 bitrate=N/A speed=20.5x    frame=25943 fps=493 q=-0.0 size=N/A time=00:18:02.03 bitrate=N/A speed=20.6x    frame=26171 fps=492 q=-0.0 size=N/A time=00:18:11.54 bitrate=N/A speed=20.5x    frame=26432 fps=493 q=-0.0 size=N/A time=00:18:22.43 bitrate=N/A speed=20.5x    frame=26696 fps=493 q=-0.0 size=N/A time=00:18:33.44 bitrate=N/A speed=20.5x    frame=26945 fps=493 q=-0.0 size=N/A time=00:18:43.83 bitrate=N/A speed=20.5x    frame=27203 fps=493 q=-0.0 size=N/A time=00:18:54.59 bitrate=N/A speed=20.6x    frame=27474 fps=493 q=-0.0 size=N/A time=00:19:05.89 bitrate=N/A speed=20.6x    frame=27695 fps=492 q=-0.0 size=N/A time=00:19:15.11 bitrate=N/A speed=20.5x    frame=27981 fps=493 q=-0.0 size=N/A time=00:19:27.04 bitrate=N/A speed=20.6x    frame=28249 fps=493 q=-0.0 size=N/A time=00:19:38.21 bitrate=N/A speed=20.6x    frame=28526 fps=494 q=-0.0 size=N/A time=00:19:49.77 bitrate=N/A speed=20.6x    frame=28772 fps=493 q=-0.0 size=N/A time=00:20:00.03 bitrate=N/A speed=20.6x    frame=29006 fps=493 q=-0.0 size=N/A time=00:20:09.79 bitrate=N/A speed=20.6x    frame=29201 fps=492 q=-0.0 size=N/A time=00:20:17.92 bitrate=N/A speed=20.5x    frame=29403 fps=491 q=-0.0 size=N/A time=00:20:26.35 bitrate=N/A speed=20.5x    frame=29637 fps=491 q=-0.0 size=N/A time=00:20:36.10 bitrate=N/A speed=20.5x    frame=29894 fps=491 q=-0.0 size=N/A time=00:20:46.82 bitrate=N/A speed=20.5x    frame=30119 fps=491 q=-0.0 size=N/A time=00:20:56.21 bitrate=N/A speed=20.5x    frame=30323 fps=490 q=-0.0 size=N/A time=00:21:04.72 bitrate=N/A speed=20.4x    frame=30511 fps=489 q=-0.0 size=N/A time=00:21:12.56 bitrate=N/A speed=20.4x    frame=30680 fps=487 q=-0.0 size=N/A time=00:21:19.61 bitrate=N/A speed=20.3x    frame=30895 fps=487 q=-0.0 size=N/A time=00:21:28.57 bitrate=N/A speed=20.3x    frame=31170 fps=487 q=-0.0 size=N/A time=00:21:40.04 bitrate=N/A speed=20.3x    frame=31456 fps=488 q=-0.0 size=N/A time=00:21:51.97 bitrate=N/A speed=20.3x    frame=31676 fps=487 q=-0.0 size=N/A time=00:22:01.15 bitrate=N/A speed=20.3x    frame=31895 fps=487 q=-0.0 size=N/A time=00:22:10.28 bitrate=N/A speed=20.3x    frame=32175 fps=487 q=-0.0 size=N/A time=00:22:21.96 bitrate=N/A speed=20.3x    frame=32378 fps=486 q=-0.0 size=N/A time=00:22:30.43 bitrate=N/A speed=20.3x    frame=32638 fps=487 q=-0.0 size=N/A time=00:22:41.27 bitrate=N/A speed=20.3x    frame=32921 fps=487 q=-0.0 size=N/A time=00:22:53.08 bitrate=N/A speed=20.3x    frame=33186 fps=487 q=-0.0 size=N/A time=00:23:04.13 bitrate=N/A speed=20.3x    frame=33451 fps=487 q=-0.0 size=N/A time=00:23:15.18 bitrate=N/A speed=20.3x    frame=33717 fps=488 q=-0.0 size=N/A time=00:23:26.27 bitrate=N/A speed=20.3x    frame=33970 fps=488 q=-0.0 size=N/A time=00:23:36.83 bitrate=N/A speed=20.3x    [Parsed_psnr_10 @ 000001dfb7c1b040] PSNR y:49.302086 u:50.799116 v:51.098253 average:49.784093 min:40.164698 max:inf
[out#0/null @ 000001dfaa78eec0] video:14697KiB audio:267500KiB subtitle:0KiB other streams:0KiB global headers:0KiB muxing overhead: unknown
frame=34203 fps=488 q=-0.0 Lsize=N/A time=00:23:46.55 bitrate=N/A speed=20.3x    
